<?xml version="1.0" standalone="no"?>
<!DOCTYPE svg PUBLIC "-//W3C//DTD SVG 20010904//EN"
 "http://www.w3.org/TR/2001/REC-SVG-20010904/DTD/svg10.dtd">
<svg version="1.0" xmlns="http://www.w3.org/2000/svg"
 width="930.000000pt" height="489.000000pt" viewBox="0 0 930.000000 489.000000"
 preserveAspectRatio="xMidYMid meet">
<metadata>
Created by potrace 1.10, written by Peter Selinger 2001-2011
</metadata>
<g transform="translate(0.000000,489.000000) scale(0.100000,-0.100000)"
fill="#ffffff" stroke="none">
<path d="M3325 4384 c-38 -19 -103 -87 -116 -122 -13 -32 -16 -2814 -4 -2853
4 -13 26 -45 48 -72 63 -75 79 -77 486 -77 204 0 361 4 383 10 53 15 124 98
137 162 6 27 11 133 11 236 0 103 3 197 6 210 13 46 30 32 194 -159 252 -293
327 -374 383 -413 l58 -41 482 0 c537 0 547 1 604 63 38 42 41 69 13 126 -28
57 -180 241 -384 465 -38 42 -92 103 -120 137 -28 33 -89 103 -135 155 -45 52
-126 143 -180 203 -53 60 -105 120 -116 135 -11 14 -50 57 -86 96 -89 94 -139
162 -139 188 0 24 78 122 224 282 95 103 239 268 314 358 24 29 80 91 124 139
43 49 96 109 117 135 21 27 73 86 116 133 118 130 126 140 188 216 61 76 97
144 97 184 0 28 -33 63 -88 94 -36 21 -48 21 -522 21 -267 0 -496 -3 -510 -7
-47 -13 -137 -92 -227 -197 -204 -240 -349 -405 -365 -415 -12 -7 -21 -6 -32
3 -14 12 -16 44 -16 218 0 230 -7 275 -56 331 -62 73 -56 72 -481 72 -321 0
-382 -2 -408 -16z m2665 -77 c0 -8 -25 -39 -56 -71 -32 -32 -87 -93 -123 -135
-36 -42 -83 -94 -103 -116 -20 -22 -69 -78 -108 -124 -39 -46 -84 -96 -98
-111 -38 -38 -133 -148 -157 -180 -11 -15 -33 -40 -50 -57 -16 -17 -41 -43
-55 -59 -133 -154 -163 -188 -173 -199 -7 -7 -23 -25 -37 -41 -131 -152 -165
-191 -188 -214 -15 -15 -38 -40 -52 -56 -13 -16 -42 -49 -64 -72 l-40 -44 30
-26 c17 -15 62 -63 100 -107 38 -44 80 -93 94 -109 14 -16 39 -42 55 -59 17
-17 39 -42 50 -57 26 -35 121 -143 161 -184 17 -17 53 -58 80 -91 68 -82 94
-113 126 -145 14 -15 59 -65 98 -111 39 -46 88 -102 108 -124 20 -22 68 -76
105 -120 38 -44 119 -133 180 -199 103 -108 139 -156 119 -156 -5 0 -14 6 -20
13 -10 9 -136 13 -545 15 l-532 3 -27 29 c-14 16 -41 50 -59 75 -18 25 -36 45
-41 45 -4 0 -8 4 -8 10 0 5 -15 24 -32 43 -18 18 -58 64 -88 101 -30 37 -72
87 -93 109 -21 23 -52 61 -69 84 -17 24 -35 43 -40 43 -4 0 -8 4 -8 10 0 5
-15 25 -32 43 -45 47 -105 119 -168 204 -56 75 -70 86 -70 56 -1 -15 3 -578 4
-786 l1 -68 -435 0 -435 0 -3 1468 -2 1468 441 0 442 0 -7 -105 c-3 -58 -6
-253 -7 -435 -1 -298 0 -330 15 -333 9 -2 16 1 16 7 0 5 6 16 13 23 6 7 23 29
37 49 14 20 46 61 71 90 46 53 83 97 164 194 22 27 47 55 55 63 8 9 24 27 35
42 11 15 43 54 72 86 28 32 68 80 90 105 95 114 114 136 146 173 l35 38 453 0
c250 -1 486 3 524 7 104 12 105 12 105 -2z"/>
<path d="M3896 1083 c-4 -5 -67 -9 -139 -10 -73 -2 -154 -3 -182 -4 -27 -1
-88 0 -135 3 -116 5 -140 -3 -192 -64 l-43 -52 0 -171 0 -171 33 -42 c18 -23
47 -51 64 -64 33 -23 41 -23 616 -19 46 0 91 5 102 11 13 7 29 5 57 -7 47 -20
163 -22 217 -4 32 11 49 11 92 1 33 -8 70 -10 101 -5 26 4 73 7 103 6 210 -7
226 -6 268 13 42 19 43 19 80 1 48 -25 259 -28 339 -6 42 12 60 12 90 3 21 -7
61 -12 88 -12 28 1 118 -2 200 -5 249 -11 271 -9 321 26 75 51 90 105 53 187
-25 54 -22 135 6 190 24 46 13 93 -33 141 -46 48 -105 67 -177 55 -27 -5 -97
-7 -155 -6 -101 3 -109 1 -163 -28 -31 -16 -61 -30 -67 -30 -6 0 -28 11 -48
25 -41 28 -103 33 -121 11 -6 -8 -24 -19 -40 -26 -25 -10 -35 -8 -86 19 -74
39 -128 41 -203 5 l-56 -26 -43 23 c-36 20 -58 24 -121 23 -42 0 -90 -4 -106
-9 -17 -5 -56 -2 -98 5 -56 11 -82 11 -129 1 -50 -10 -66 -9 -104 4 -34 11
-89 15 -214 15 -92 0 -171 -3 -175 -7z m-157 -95 c20 -7 42 -21 49 -30 7 -9
18 -23 25 -30 14 -14 47 -111 47 -137 0 -9 -9 -36 -20 -60 -19 -40 -19 -46 -5
-61 11 -12 15 -32 13 -61 l-3 -44 -55 -1 c-84 -1 -91 6 -83 74 3 33 13 62 21
68 19 14 28 118 13 157 -14 35 -52 37 -75 2 -20 -30 -21 -96 -2 -133 20 -40
30 -148 14 -158 -19 -12 -211 -13 -225 -2 -7 6 -13 20 -13 32 0 11 -7 30 -15
40 -8 11 -15 28 -15 38 0 10 -7 18 -16 18 -13 0 -15 -7 -10 -32 20 -96 20 -97
-7 -103 -13 -4 -38 -5 -53 -3 l-29 3 -3 213 -2 212 50 0 c59 0 68 -11 50 -66
-19 -56 3 -66 28 -12 11 23 23 51 26 61 4 13 16 17 55 17 54 0 70 -12 50 -37
-16 -18 -36 -52 -44 -73 -3 -8 -13 -28 -21 -43 -18 -37 -18 -71 1 -87 8 -7 15
-20 15 -30 0 -10 7 -31 15 -46 8 -16 15 -37 15 -46 0 -29 20 -30 30 -1 6 15
16 38 22 50 9 18 8 26 -5 41 -12 13 -17 37 -17 86 0 95 35 156 104 183 40 15
34 15 75 1z m769 -5 c61 -15 104 -169 79 -280 -8 -34 -22 -72 -30 -84 -37 -52
-119 -77 -147 -44 -7 8 -17 15 -22 15 -14 0 -47 42 -48 61 0 9 -7 30 -15 45
-19 36 -20 143 -1 169 7 11 16 31 20 45 13 51 76 94 121 83 11 -2 30 -7 43
-10z m600 -9 c12 -8 34 -33 48 -56 25 -39 26 -47 21 -137 -6 -109 -26 -162
-76 -198 -59 -44 -132 -18 -173 61 -16 31 -20 60 -21 142 -1 100 0 105 28 146
45 63 112 79 173 42z m533 15 c37 -13 78 -54 79 -79 0 -9 6 -22 13 -29 17 -17
17 -185 -1 -203 -6 -6 -12 -20 -12 -29 0 -25 -82 -89 -113 -89 -36 0 -81 28
-101 63 -9 17 -23 63 -31 103 -24 128 9 224 90 260 37 16 35 16 76 3z m-1333
-48 l-3 -46 -42 -3 c-47 -3 -55 -20 -28 -56 19 -25 19 -70 1 -85 -8 -7 -17
-24 -21 -38 -7 -29 9 -46 38 -37 9 3 26 2 37 -1 18 -6 21 -14 18 -58 l-3 -52
-117 -1 -118 -1 0 24 c0 14 6 37 14 51 7 15 20 43 29 62 8 19 21 47 27 62 13
28 10 43 -25 123 -8 17 -16 38 -19 48 -8 25 -26 12 -26 -19 0 -20 -5 -24 -30
-24 l-30 0 0 -166 0 -165 -47 3 -48 3 4 163 3 162 -30 0 c-27 0 -32 5 -41 37
-6 22 -7 41 -1 48 6 7 85 11 235 11 l226 1 -3 -46z m521 20 c29 -29 36 -83 17
-122 -22 -44 -20 -56 9 -75 22 -14 25 -23 25 -73 -1 -38 -6 -62 -18 -76 -29
-34 -91 -53 -167 -52 l-70 2 1 35 c1 19 5 78 9 130 5 60 3 123 -4 169 -9 60
-9 76 1 83 7 5 50 6 95 4 64 -4 87 -10 102 -25z m541 15 c6 -8 16 -39 20 -68
14 -79 34 -172 41 -183 4 -5 10 -28 14 -50 3 -22 13 -48 22 -57 26 -29 13 -53
-33 -56 -53 -4 -74 16 -75 71 0 48 -29 131 -44 129 -5 -1 -13 -33 -17 -72 -3
-39 -12 -85 -18 -101 -12 -28 -16 -30 -59 -27 -45 3 -46 4 -42 33 1 17 9 41
15 55 7 14 20 61 30 105 9 44 23 101 31 126 8 26 15 58 15 71 0 14 3 28 7 31
12 13 81 7 93 -7z m608 5 c8 -5 12 -23 10 -47 -3 -38 -4 -39 -43 -42 -67 -5
-68 -6 -41 -61 22 -43 23 -51 11 -61 -8 -7 -15 -21 -15 -32 0 -10 -7 -21 -15
-24 -8 -4 -15 -12 -15 -20 0 -9 17 -14 53 -16 l52 -3 0 -55 0 -55 -122 -1
c-68 0 -123 3 -123 8 0 4 11 31 24 60 61 131 68 171 42 225 -8 15 -24 47 -36
70 -12 24 -18 47 -15 53 7 12 214 13 233 1z"/>
<path d="M4423 863 c-13 -45 -8 -160 7 -178 19 -23 53 -15 61 15 11 38 10 136
-1 164 -14 37 -57 36 -67 -1z"/>
<path d="M5012 878 c-8 -8 -12 -45 -12 -100 0 -85 1 -89 26 -100 40 -18 63 18
64 100 0 89 -39 139 -78 100z"/>
<path d="M5574 879 c-9 -15 -9 -183 0 -197 4 -7 18 -12 30 -12 44 0 66 117 36
190 -13 31 -51 42 -66 19z"/>
<path d="M4726 894 c-24 -24 -17 -68 11 -72 34 -5 51 44 25 71 -18 17 -20 18
-36 1z"/>
<path d="M4722 738 c-13 -13 -16 -46 -6 -72 16 -40 91 5 78 47 -8 27 -5 24
-34 32 -15 3 -30 1 -38 -7z"/>
</g>
</svg>
