 <svg  version="1.0" xmlns="http://www.w3.org/2000/svg"  width="200.000000pt" height="200.000000pt" viewBox="0 0 200.000000 200.000000"  preserveAspectRatio="xMidYMid meet">  <g transform="translate(0.000000,200.000000) scale(0.100000,-0.100000)" fill="#ffffff" stroke="none"> <path d="M750 1519 l0 -425 40 -39 40 -39 0 425 0 425 -40 39 -40 39 0 -425z"/> <path d="M908 1362 l3 -427 34 -35 35 -35 195 195 c189 189 195 196 195 235 0 35 -6 47 -40 80 l-40 39 0 -66 0 -67 -152 -150 c-84 -83 -154 -151 -156 -151 -1 0 -2 165 -2 367 l1 367 -38 38 -38 38 3 -428z m54 -420 c-2 -7 -7 -10 -10 -7 -9 9 -12 38 -5 49 8 13 22 -25 15 -42z m54 15 c4 -4 -1 -7 -12 -7 -14 0 -16 -2 -5 -9 7 -5 9 -11 4 -14 -13 -8 -30 5 -30 24 0 15 30 19 43 6z"/> <path d="M1135 1458 l3 -103 -38 -40 c-32 -33 -39 -49 -42 -92 -3 -29 -4 -53 -2 -53 2 0 37 35 79 77 l75 78 0 80 c-1 77 -2 81 -35 118 -20 20 -37 37 -39 37 -3 0 -3 -46 -1 -102z"/> <path d="M363 555 c-17 -7 -36 -22 -42 -34 -7 -12 -11 -94 -11 -214 l0 -195 31 -26 c44 -37 124 -37 168 0 l31 26 0 195 c0 120 -4 202 -11 215 -13 23 -67 48 -106 48 -15 -1 -42 -7 -60 -15z m122 -45 c15 -17 17 -40 16 -201 0 -207 -2 -211 -74 -213 -76 -2 -77 1 -77 212 0 159 2 188 17 204 23 25 94 25 118 -2z"/> <path d="M704 563 c-12 -2 -32 -15 -45 -29 -23 -25 -24 -31 -27 -212 -2 -172 -1 -190 17 -219 23 -36 66 -49 133 -40 69 9 82 32 86 147 l4 100 -61 0 c-53 0 -61 -2 -61 -19 0 -16 5 -18 40 -14 l40 6 0 -76 c0 -71 -2 -77 -27 -97 -21 -17 -36 -20 -63 -16 -65 10 -70 26 -70 222 0 161 2 176 20 194 24 24 87 27 115 6 13 -9 21 -31 25 -67 3 -39 9 -54 20 -54 19 0 26 77 10 116 -19 45 -82 67 -156 52z"/> <path d="M1153 555 c-17 -7 -36 -22 -42 -34 -7 -12 -11 -94 -11 -214 l0 -195 32 -27 c29 -24 38 -27 90 -23 84 6 102 26 106 123 4 71 3 75 -17 75 -19 0 -21 -6 -21 -62 0 -35 -4 -68 -8 -74 -25 -38 -112 -41 -132 -4 -6 11 -10 96 -10 198 0 204 3 212 78 212 54 0 72 -25 72 -100 0 -49 2 -56 20 -56 18 0 20 7 20 58 0 72 -14 103 -55 123 -40 18 -80 19 -122 0z"/> <path d="M60 310 l0 -250 95 0 c88 0 95 1 95 20 0 18 -7 20 -75 20 l-75 0 0 230 c0 223 -1 230 -20 230 -19 0 -20 -7 -20 -250z"/> <path d="M960 310 c0 -243 1 -250 20 -250 19 0 20 7 20 250 0 243 -1 250 -20 250 -19 0 -20 -7 -20 -250z"/> <path d="M1420 310 l0 -250 100 0 c93 0 100 1 100 20 0 18 -7 20 -80 20 l-80 0 0 100 0 100 71 0 c61 0 70 2 67 17 -2 14 -14 16 -70 14 l-68 -2 0 101 0 101 78 -2 c65 -2 78 0 80 14 3 15 -9 17 -97 17 l-101 0 0 -250z"/> <path d="M1722 318 c-29 -134 -53 -246 -53 -250 1 -5 10 -8 21 -8 14 0 20 7 20 21 0 11 5 40 11 65 l11 44 68 0 68 0 11 -50 c6 -28 11 -58 11 -65 0 -9 10 -15 26 -15 22 0 24 3 18 23 -4 12 -31 123 -59 247 -49 214 -53 225 -76 228 -24 3 -25 -2 -77 -240z m104 64 c12 -59 25 -118 29 -132 6 -25 5 -25 -52 -23 -32 1 -58 5 -58 10 0 21 51 261 54 257 3 -2 15 -53 27 -112z"/> </g> </svg> 